<mxfile host="app.diagrams.net" agent="Mozilla/5.0 (Windows NT 10.0; Win64; x64) AppleWebKit/537.36 (KHTML, like Gecko) Chrome/132.0.0.0 Safari/537.36 Edg/132.0.0.0" version="26.0.11">
  <diagram name="Page-1" id="0XYR_GX21Qhjts9TqkyV">
    <mxGraphModel dx="1308" dy="512" grid="1" gridSize="10" guides="1" tooltips="1" connect="1" arrows="1" fold="1" page="1" pageScale="1" pageWidth="850" pageHeight="1100" math="0" shadow="0">
      <root>
        <mxCell id="0" />
        <mxCell id="1" parent="0" />
        <mxCell id="vOTe-QLmusaoE5qEw0vW-58" style="shape=connector;rounded=0;orthogonalLoop=1;jettySize=auto;html=1;strokeColor=default;align=center;verticalAlign=top;fontFamily=Verdana;fontSize=7;fontColor=default;labelBackgroundColor=default;startFill=0;endArrow=none;" parent="1" source="vOTe-QLmusaoE5qEw0vW-36" target="vOTe-QLmusaoE5qEw0vW-57" edge="1">
          <mxGeometry relative="1" as="geometry" />
        </mxCell>
        <mxCell id="vOTe-QLmusaoE5qEw0vW-36" value="Person" style="whiteSpace=wrap;html=1;align=center;fontFamily=Verdana;fontSize=7;fontColor=default;labelBackgroundColor=default;" parent="1" vertex="1">
          <mxGeometry x="290.71" y="70" width="100" height="40" as="geometry" />
        </mxCell>
        <mxCell id="vOTe-QLmusaoE5qEw0vW-79" style="edgeStyle=orthogonalEdgeStyle;shape=connector;rounded=0;orthogonalLoop=1;jettySize=auto;html=1;strokeColor=default;align=center;verticalAlign=top;fontFamily=Verdana;fontSize=7;fontColor=default;labelBackgroundColor=default;startFill=0;endArrow=none;" parent="1" source="vOTe-QLmusaoE5qEw0vW-38" target="vOTe-QLmusaoE5qEw0vW-78" edge="1">
          <mxGeometry relative="1" as="geometry" />
        </mxCell>
        <mxCell id="9Wn79j_09oTSSWoXO-Nu-41" style="edgeStyle=orthogonalEdgeStyle;shape=connector;rounded=0;orthogonalLoop=1;jettySize=auto;html=1;exitX=0.12;exitY=0.95;exitDx=0;exitDy=0;strokeColor=default;align=center;verticalAlign=top;fontFamily=Verdana;fontSize=7;fontColor=default;labelBackgroundColor=default;startFill=0;endArrow=none;entryX=0.5;entryY=0;entryDx=0;entryDy=0;dashed=1;exitPerimeter=0;" edge="1" parent="1" source="vOTe-QLmusaoE5qEw0vW-38" target="9Wn79j_09oTSSWoXO-Nu-43">
          <mxGeometry relative="1" as="geometry">
            <mxPoint x="185" y="761" as="targetPoint" />
          </mxGeometry>
        </mxCell>
        <mxCell id="9Wn79j_09oTSSWoXO-Nu-50" value="M" style="edgeLabel;html=1;align=center;verticalAlign=middle;resizable=0;points=[];fontFamily=Verdana;fontSize=7;fontColor=default;labelBackgroundColor=default;" vertex="1" connectable="0" parent="9Wn79j_09oTSSWoXO-Nu-41">
          <mxGeometry x="-0.9346" relative="1" as="geometry">
            <mxPoint as="offset" />
          </mxGeometry>
        </mxCell>
        <mxCell id="9Wn79j_09oTSSWoXO-Nu-54" style="edgeStyle=orthogonalEdgeStyle;shape=connector;rounded=0;orthogonalLoop=1;jettySize=auto;html=1;entryX=0;entryY=0.5;entryDx=0;entryDy=0;strokeColor=default;align=center;verticalAlign=top;fontFamily=Verdana;fontSize=7;fontColor=default;labelBackgroundColor=default;startFill=0;endArrow=none;" edge="1" parent="1" source="vOTe-QLmusaoE5qEw0vW-38" target="9Wn79j_09oTSSWoXO-Nu-53">
          <mxGeometry relative="1" as="geometry" />
        </mxCell>
        <mxCell id="9Wn79j_09oTSSWoXO-Nu-57" value="M" style="edgeLabel;html=1;align=center;verticalAlign=middle;resizable=0;points=[];fontFamily=Verdana;fontSize=7;fontColor=default;labelBackgroundColor=default;" vertex="1" connectable="0" parent="9Wn79j_09oTSSWoXO-Nu-54">
          <mxGeometry x="-0.8767" relative="1" as="geometry">
            <mxPoint as="offset" />
          </mxGeometry>
        </mxCell>
        <mxCell id="vOTe-QLmusaoE5qEw0vW-38" value="Patient" style="whiteSpace=wrap;html=1;align=center;strokeColor=default;verticalAlign=middle;fontFamily=Verdana;fontSize=7;fontColor=default;labelBackgroundColor=default;fillColor=default;" parent="1" vertex="1">
          <mxGeometry x="160" y="435" width="100" height="40" as="geometry" />
        </mxCell>
        <mxCell id="vOTe-QLmusaoE5qEw0vW-89" style="edgeStyle=orthogonalEdgeStyle;shape=connector;rounded=0;orthogonalLoop=1;jettySize=auto;html=1;strokeColor=default;align=center;verticalAlign=top;fontFamily=Verdana;fontSize=7;fontColor=default;labelBackgroundColor=default;startFill=0;endArrow=none;" parent="1" edge="1">
          <mxGeometry relative="1" as="geometry">
            <mxPoint x="1232.5" y="575" as="sourcePoint" />
            <mxPoint x="1275" y="615" as="targetPoint" />
          </mxGeometry>
        </mxCell>
        <mxCell id="9Wn79j_09oTSSWoXO-Nu-33" style="edgeStyle=orthogonalEdgeStyle;shape=connector;rounded=0;orthogonalLoop=1;jettySize=auto;html=1;exitX=1;exitY=0.25;exitDx=0;exitDy=0;strokeColor=default;align=center;verticalAlign=top;fontFamily=Verdana;fontSize=7;fontColor=default;labelBackgroundColor=default;startFill=0;endArrow=none;entryX=0;entryY=0.5;entryDx=0;entryDy=0;" edge="1" parent="1" source="vOTe-QLmusaoE5qEw0vW-39" target="9Wn79j_09oTSSWoXO-Nu-34">
          <mxGeometry relative="1" as="geometry">
            <mxPoint x="960" y="530.4761904761905" as="targetPoint" />
          </mxGeometry>
        </mxCell>
        <mxCell id="9Wn79j_09oTSSWoXO-Nu-39" value="M" style="edgeLabel;html=1;align=center;verticalAlign=middle;resizable=0;points=[];fontFamily=Verdana;fontSize=7;fontColor=default;labelBackgroundColor=default;" vertex="1" connectable="0" parent="9Wn79j_09oTSSWoXO-Nu-33">
          <mxGeometry x="-0.7328" y="2" relative="1" as="geometry">
            <mxPoint as="offset" />
          </mxGeometry>
        </mxCell>
        <mxCell id="vOTe-QLmusaoE5qEw0vW-39" value="Nurse" style="whiteSpace=wrap;html=1;align=center;strokeColor=default;verticalAlign=middle;fontFamily=Verdana;fontSize=7;fontColor=default;labelBackgroundColor=default;fillColor=default;" parent="1" vertex="1">
          <mxGeometry x="303.21" y="570" width="100" height="40" as="geometry" />
        </mxCell>
        <mxCell id="vOTe-QLmusaoE5qEw0vW-81" style="edgeStyle=orthogonalEdgeStyle;shape=connector;rounded=0;orthogonalLoop=1;jettySize=auto;html=1;strokeColor=default;align=center;verticalAlign=top;fontFamily=Verdana;fontSize=7;fontColor=default;labelBackgroundColor=default;startFill=0;endArrow=none;" parent="1" source="vOTe-QLmusaoE5qEw0vW-40" target="vOTe-QLmusaoE5qEw0vW-80" edge="1">
          <mxGeometry relative="1" as="geometry" />
        </mxCell>
        <mxCell id="vOTe-QLmusaoE5qEw0vW-87" style="edgeStyle=orthogonalEdgeStyle;shape=connector;rounded=0;orthogonalLoop=1;jettySize=auto;html=1;exitX=0.75;exitY=1;exitDx=0;exitDy=0;entryX=0.5;entryY=0;entryDx=0;entryDy=0;strokeColor=default;align=center;verticalAlign=top;fontFamily=Verdana;fontSize=7;fontColor=default;labelBackgroundColor=default;startFill=0;endArrow=none;" parent="1" source="vOTe-QLmusaoE5qEw0vW-40" target="vOTe-QLmusaoE5qEw0vW-86" edge="1">
          <mxGeometry relative="1" as="geometry" />
        </mxCell>
        <mxCell id="9Wn79j_09oTSSWoXO-Nu-27" style="edgeStyle=orthogonalEdgeStyle;shape=connector;rounded=0;orthogonalLoop=1;jettySize=auto;html=1;entryX=0.5;entryY=0;entryDx=0;entryDy=0;strokeColor=default;align=center;verticalAlign=top;fontFamily=Verdana;fontSize=7;fontColor=default;labelBackgroundColor=default;startFill=0;endArrow=none;" edge="1" parent="1" source="vOTe-QLmusaoE5qEw0vW-40" target="9Wn79j_09oTSSWoXO-Nu-26">
          <mxGeometry relative="1" as="geometry" />
        </mxCell>
        <mxCell id="9Wn79j_09oTSSWoXO-Nu-30" value="M" style="edgeLabel;html=1;align=center;verticalAlign=middle;resizable=0;points=[];fontFamily=Verdana;fontSize=7;fontColor=default;labelBackgroundColor=default;" vertex="1" connectable="0" parent="9Wn79j_09oTSSWoXO-Nu-27">
          <mxGeometry x="-0.7255" y="1" relative="1" as="geometry">
            <mxPoint as="offset" />
          </mxGeometry>
        </mxCell>
        <mxCell id="vOTe-QLmusaoE5qEw0vW-40" value="Physician" style="whiteSpace=wrap;html=1;align=center;strokeColor=default;verticalAlign=middle;fontFamily=Verdana;fontSize=7;fontColor=default;labelBackgroundColor=default;fillColor=default;" parent="1" vertex="1">
          <mxGeometry x="780" y="330" width="100" height="40" as="geometry" />
        </mxCell>
        <mxCell id="vOTe-QLmusaoE5qEw0vW-41" value="ISA" style="verticalLabelPosition=middle;verticalAlign=middle;html=1;shape=mxgraph.basic.acute_triangle;dx=0.5;strokeColor=default;align=center;fontFamily=Verdana;fontSize=7;fontColor=default;labelBackgroundColor=default;fillColor=default;labelPosition=center;" parent="1" vertex="1">
          <mxGeometry x="308.57000000000005" y="165" width="64.29" height="45" as="geometry" />
        </mxCell>
        <mxCell id="vOTe-QLmusaoE5qEw0vW-42" style="edgeStyle=orthogonalEdgeStyle;shape=connector;rounded=0;orthogonalLoop=1;jettySize=auto;html=1;exitX=0.5;exitY=0;exitDx=0;exitDy=0;entryX=0.68;entryY=1.006;entryDx=0;entryDy=0;entryPerimeter=0;strokeColor=default;align=center;verticalAlign=top;fontFamily=Verdana;fontSize=7;fontColor=default;labelBackgroundColor=default;startFill=0;endArrow=none;" parent="1" source="vOTe-QLmusaoE5qEw0vW-39" target="vOTe-QLmusaoE5qEw0vW-41" edge="1">
          <mxGeometry relative="1" as="geometry" />
        </mxCell>
        <mxCell id="vOTe-QLmusaoE5qEw0vW-43" style="edgeStyle=orthogonalEdgeStyle;shape=connector;rounded=0;orthogonalLoop=1;jettySize=auto;html=1;exitX=0.5;exitY=0;exitDx=0;exitDy=0;strokeColor=default;align=center;verticalAlign=top;fontFamily=Verdana;fontSize=7;fontColor=default;labelBackgroundColor=default;startFill=0;endArrow=none;entryX=0.247;entryY=0.978;entryDx=0;entryDy=0;entryPerimeter=0;" parent="1" source="vOTe-QLmusaoE5qEw0vW-38" target="vOTe-QLmusaoE5qEw0vW-41" edge="1">
          <mxGeometry relative="1" as="geometry" />
        </mxCell>
        <mxCell id="vOTe-QLmusaoE5qEw0vW-44" style="edgeStyle=orthogonalEdgeStyle;shape=connector;rounded=0;orthogonalLoop=1;jettySize=auto;html=1;exitX=0.5;exitY=0;exitDx=0;exitDy=0;entryX=0.962;entryY=0.978;entryDx=0;entryDy=0;entryPerimeter=0;strokeColor=default;align=center;verticalAlign=top;fontFamily=Verdana;fontSize=7;fontColor=default;labelBackgroundColor=default;startFill=0;endArrow=none;" parent="1" source="vOTe-QLmusaoE5qEw0vW-40" target="vOTe-QLmusaoE5qEw0vW-41" edge="1">
          <mxGeometry relative="1" as="geometry" />
        </mxCell>
        <mxCell id="vOTe-QLmusaoE5qEw0vW-45" style="edgeStyle=orthogonalEdgeStyle;shape=connector;rounded=0;orthogonalLoop=1;jettySize=auto;html=1;exitX=0.5;exitY=1;exitDx=0;exitDy=0;entryX=0;entryY=0;entryDx=32.145;entryDy=0;entryPerimeter=0;strokeColor=default;align=center;verticalAlign=top;fontFamily=Verdana;fontSize=7;fontColor=default;labelBackgroundColor=default;startFill=0;endArrow=none;" parent="1" source="vOTe-QLmusaoE5qEw0vW-36" target="vOTe-QLmusaoE5qEw0vW-41" edge="1">
          <mxGeometry relative="1" as="geometry" />
        </mxCell>
        <mxCell id="vOTe-QLmusaoE5qEw0vW-49" style="shape=connector;rounded=0;orthogonalLoop=1;jettySize=auto;html=1;strokeColor=default;align=center;verticalAlign=top;fontFamily=Verdana;fontSize=7;fontColor=default;labelBackgroundColor=default;startFill=0;endArrow=none;endSize=6;startSize=6;jumpSize=6;shadow=0;" parent="1" source="vOTe-QLmusaoE5qEw0vW-46" target="vOTe-QLmusaoE5qEw0vW-36" edge="1">
          <mxGeometry relative="1" as="geometry" />
        </mxCell>
        <mxCell id="vOTe-QLmusaoE5qEw0vW-46" value="uid" style="ellipse;whiteSpace=wrap;html=1;align=center;fontStyle=4;strokeColor=default;verticalAlign=middle;fontFamily=Verdana;fontSize=7;fontColor=default;labelBackgroundColor=default;fillColor=default;" parent="1" vertex="1">
          <mxGeometry x="209.99999999999997" y="100" width="50" height="20" as="geometry" />
        </mxCell>
        <mxCell id="vOTe-QLmusaoE5qEw0vW-62" style="shape=connector;rounded=0;orthogonalLoop=1;jettySize=auto;html=1;entryX=0;entryY=0.25;entryDx=0;entryDy=0;strokeColor=default;align=center;verticalAlign=top;fontFamily=Verdana;fontSize=7;fontColor=default;labelBackgroundColor=default;startFill=0;endArrow=none;" parent="1" source="vOTe-QLmusaoE5qEw0vW-53" target="vOTe-QLmusaoE5qEw0vW-36" edge="1">
          <mxGeometry relative="1" as="geometry" />
        </mxCell>
        <mxCell id="vOTe-QLmusaoE5qEw0vW-53" value="first_name" style="ellipse;whiteSpace=wrap;html=1;align=center;strokeColor=default;verticalAlign=middle;fontFamily=Verdana;fontSize=7;fontColor=default;labelBackgroundColor=default;fillColor=default;" parent="1" vertex="1">
          <mxGeometry x="210" y="70" width="50" height="20" as="geometry" />
        </mxCell>
        <mxCell id="vOTe-QLmusaoE5qEw0vW-54" value="last_name&lt;span style=&quot;color: rgba(0, 0, 0, 0); font-family: monospace; font-size: 0px; text-align: start; text-wrap-mode: nowrap; background-color: rgb(251, 251, 251);&quot;&gt;%3CmxGraphModel%3E%3Croot%3E%3CmxCell%20id%3D%220%22%2F%3E%3CmxCell%20id%3D%221%22%20parent%3D%220%22%2F%3E%3CmxCell%20id%3D%222%22%20value%3D%22first_name%22%20style%3D%22ellipse%3BwhiteSpace%3Dwrap%3Bhtml%3D1%3Balign%3Dcenter%3BstrokeColor%3Ddefault%3BverticalAlign%3Dmiddle%3BfontFamily%3DVerdana%3BfontSize%3D7%3BfontColor%3Ddefault%3BlabelBackgroundColor%3Ddefault%3BfillColor%3Ddefault%3B%22%20vertex%3D%221%22%20parent%3D%221%22%3E%3CmxGeometry%20x%3D%22180%22%20y%3D%22210%22%20width%3D%2250%22%20height%3D%2220%22%20as%3D%22geometry%22%2F%3E%3C%2FmxCell%3E%3C%2Froot%3E%3C%2FmxGraphModel%3E&lt;/span&gt;" style="ellipse;whiteSpace=wrap;html=1;align=center;strokeColor=default;verticalAlign=middle;fontFamily=Verdana;fontSize=7;fontColor=default;labelBackgroundColor=default;fillColor=default;" parent="1" vertex="1">
          <mxGeometry x="240.71" y="20" width="50" height="20" as="geometry" />
        </mxCell>
        <mxCell id="vOTe-QLmusaoE5qEw0vW-55" value="gender" style="ellipse;whiteSpace=wrap;html=1;align=center;strokeColor=default;verticalAlign=middle;fontFamily=Verdana;fontSize=7;fontColor=default;labelBackgroundColor=default;fillColor=default;" parent="1" vertex="1">
          <mxGeometry x="308.57" y="10" width="50" height="20" as="geometry" />
        </mxCell>
        <mxCell id="vOTe-QLmusaoE5qEw0vW-59" style="shape=connector;rounded=0;orthogonalLoop=1;jettySize=auto;html=1;strokeColor=default;align=center;verticalAlign=top;fontFamily=Verdana;fontSize=7;fontColor=default;labelBackgroundColor=default;startFill=0;endArrow=none;" parent="1" source="vOTe-QLmusaoE5qEw0vW-56" target="vOTe-QLmusaoE5qEw0vW-36" edge="1">
          <mxGeometry relative="1" as="geometry" />
        </mxCell>
        <mxCell id="vOTe-QLmusaoE5qEw0vW-56" value="address" style="ellipse;whiteSpace=wrap;html=1;align=center;strokeColor=default;verticalAlign=middle;fontFamily=Verdana;fontSize=7;fontColor=default;labelBackgroundColor=default;fillColor=default;" parent="1" vertex="1">
          <mxGeometry x="372.86" y="20" width="50" height="20" as="geometry" />
        </mxCell>
        <mxCell id="vOTe-QLmusaoE5qEw0vW-57" value="birthday" style="ellipse;whiteSpace=wrap;html=1;align=center;strokeColor=default;verticalAlign=middle;fontFamily=Verdana;fontSize=7;fontColor=default;labelBackgroundColor=default;fillColor=default;" parent="1" vertex="1">
          <mxGeometry x="440" y="100" width="50" height="20" as="geometry" />
        </mxCell>
        <mxCell id="vOTe-QLmusaoE5qEw0vW-60" style="shape=connector;rounded=0;orthogonalLoop=1;jettySize=auto;html=1;entryX=0.295;entryY=0.004;entryDx=0;entryDy=0;entryPerimeter=0;strokeColor=default;align=center;verticalAlign=top;fontFamily=Verdana;fontSize=7;fontColor=default;labelBackgroundColor=default;startFill=0;endArrow=none;" parent="1" source="vOTe-QLmusaoE5qEw0vW-55" target="vOTe-QLmusaoE5qEw0vW-36" edge="1">
          <mxGeometry relative="1" as="geometry" />
        </mxCell>
        <mxCell id="vOTe-QLmusaoE5qEw0vW-61" style="shape=connector;rounded=0;orthogonalLoop=1;jettySize=auto;html=1;entryX=0.071;entryY=-0.008;entryDx=0;entryDy=0;entryPerimeter=0;strokeColor=default;align=center;verticalAlign=top;fontFamily=Verdana;fontSize=7;fontColor=default;labelBackgroundColor=default;startFill=0;endArrow=none;" parent="1" source="vOTe-QLmusaoE5qEw0vW-54" target="vOTe-QLmusaoE5qEw0vW-36" edge="1">
          <mxGeometry relative="1" as="geometry" />
        </mxCell>
        <mxCell id="vOTe-QLmusaoE5qEw0vW-63" style="edgeStyle=orthogonalEdgeStyle;shape=connector;rounded=0;orthogonalLoop=1;jettySize=auto;html=1;exitX=0.5;exitY=1;exitDx=0;exitDy=0;strokeColor=default;align=center;verticalAlign=top;fontFamily=Verdana;fontSize=7;fontColor=default;labelBackgroundColor=default;startFill=0;endArrow=none;" parent="1" source="vOTe-QLmusaoE5qEw0vW-53" target="vOTe-QLmusaoE5qEw0vW-53" edge="1">
          <mxGeometry relative="1" as="geometry" />
        </mxCell>
        <mxCell id="vOTe-QLmusaoE5qEw0vW-68" style="edgeStyle=orthogonalEdgeStyle;shape=connector;rounded=0;orthogonalLoop=1;jettySize=auto;html=1;entryX=1;entryY=0.25;entryDx=0;entryDy=0;strokeColor=default;align=center;verticalAlign=top;fontFamily=Verdana;fontSize=7;fontColor=default;labelBackgroundColor=default;startFill=0;endArrow=none;exitX=0;exitY=0.5;exitDx=0;exitDy=0;" parent="1" source="9Wn79j_09oTSSWoXO-Nu-76" target="vOTe-QLmusaoE5qEw0vW-36" edge="1">
          <mxGeometry relative="1" as="geometry">
            <mxPoint x="450" y="190" as="sourcePoint" />
          </mxGeometry>
        </mxCell>
        <mxCell id="vOTe-QLmusaoE5qEw0vW-70" value="1" style="edgeLabel;html=1;align=center;verticalAlign=middle;resizable=0;points=[];strokeColor=default;fontFamily=Verdana;fontSize=7;fontColor=default;labelBackgroundColor=default;fillColor=default;" parent="vOTe-QLmusaoE5qEw0vW-68" vertex="1" connectable="0">
          <mxGeometry x="0.6044" y="-2" relative="1" as="geometry">
            <mxPoint as="offset" />
          </mxGeometry>
        </mxCell>
        <mxCell id="vOTe-QLmusaoE5qEw0vW-69" style="edgeStyle=orthogonalEdgeStyle;shape=connector;rounded=0;orthogonalLoop=1;jettySize=auto;html=1;strokeColor=default;align=center;verticalAlign=top;fontFamily=Verdana;fontSize=7;fontColor=default;labelBackgroundColor=default;startFill=0;endArrow=none;exitX=1;exitY=0.5;exitDx=0;exitDy=0;entryX=0;entryY=0.5;entryDx=0;entryDy=0;" parent="1" source="9Wn79j_09oTSSWoXO-Nu-76" target="9Wn79j_09oTSSWoXO-Nu-77" edge="1">
          <mxGeometry relative="1" as="geometry">
            <mxPoint x="530" y="190" as="sourcePoint" />
            <mxPoint x="600" y="180" as="targetPoint" />
          </mxGeometry>
        </mxCell>
        <mxCell id="vOTe-QLmusaoE5qEw0vW-71" value="M" style="edgeLabel;html=1;align=center;verticalAlign=middle;resizable=0;points=[];strokeColor=default;fontFamily=Verdana;fontSize=7;fontColor=default;labelBackgroundColor=default;fillColor=default;" parent="vOTe-QLmusaoE5qEw0vW-69" vertex="1" connectable="0">
          <mxGeometry x="0.55" y="-2" relative="1" as="geometry">
            <mxPoint as="offset" />
          </mxGeometry>
        </mxCell>
        <mxCell id="vOTe-QLmusaoE5qEw0vW-73" value="&lt;span style=&quot;border-bottom: 1px dotted&quot;&gt;number&lt;/span&gt;" style="ellipse;whiteSpace=wrap;html=1;align=center;strokeColor=default;verticalAlign=middle;fontFamily=Verdana;fontSize=7;fontColor=default;labelBackgroundColor=default;fillColor=default;" parent="1" vertex="1">
          <mxGeometry x="580" y="100" width="50" height="20" as="geometry" />
        </mxCell>
        <mxCell id="vOTe-QLmusaoE5qEw0vW-75" style="edgeStyle=orthogonalEdgeStyle;shape=connector;rounded=0;orthogonalLoop=1;jettySize=auto;html=1;exitX=0.5;exitY=1;exitDx=0;exitDy=0;entryX=0.387;entryY=0.044;entryDx=0;entryDy=0;entryPerimeter=0;strokeColor=default;align=center;verticalAlign=top;fontFamily=Verdana;fontSize=7;fontColor=default;labelBackgroundColor=default;startFill=0;endArrow=none;" parent="1" source="vOTe-QLmusaoE5qEw0vW-73" target="9Wn79j_09oTSSWoXO-Nu-77" edge="1">
          <mxGeometry relative="1" as="geometry">
            <mxPoint x="637.5000000000002" y="156.60000000000002" as="targetPoint" />
          </mxGeometry>
        </mxCell>
        <mxCell id="vOTe-QLmusaoE5qEw0vW-76" value="contact_type" style="ellipse;whiteSpace=wrap;html=1;align=center;strokeColor=default;verticalAlign=middle;fontFamily=Verdana;fontSize=7;fontColor=default;labelBackgroundColor=default;fillColor=default;" parent="1" vertex="1">
          <mxGeometry x="660" y="100" width="50" height="20" as="geometry" />
        </mxCell>
        <mxCell id="vOTe-QLmusaoE5qEw0vW-77" style="edgeStyle=orthogonalEdgeStyle;shape=connector;rounded=0;orthogonalLoop=1;jettySize=auto;html=1;entryX=0.609;entryY=0.017;entryDx=0;entryDy=0;entryPerimeter=0;strokeColor=default;align=center;verticalAlign=top;fontFamily=Verdana;fontSize=7;fontColor=default;labelBackgroundColor=default;startFill=0;endArrow=none;" parent="1" source="vOTe-QLmusaoE5qEw0vW-76" target="9Wn79j_09oTSSWoXO-Nu-77" edge="1">
          <mxGeometry relative="1" as="geometry">
            <mxPoint x="660.5" y="156.60000000000002" as="targetPoint" />
          </mxGeometry>
        </mxCell>
        <mxCell id="vOTe-QLmusaoE5qEw0vW-78" value="insurance" style="ellipse;whiteSpace=wrap;html=1;align=center;strokeColor=default;verticalAlign=middle;fontFamily=Verdana;fontSize=7;fontColor=default;labelBackgroundColor=default;fillColor=default;" parent="1" vertex="1">
          <mxGeometry x="250" y="520" width="50" height="20" as="geometry" />
        </mxCell>
        <mxCell id="vOTe-QLmusaoE5qEw0vW-80" value="specialty" style="ellipse;whiteSpace=wrap;html=1;align=center;strokeColor=default;verticalAlign=middle;fontFamily=Verdana;fontSize=7;fontColor=default;labelBackgroundColor=default;fillColor=default;" parent="1" vertex="1">
          <mxGeometry x="730" y="475" width="50" height="20" as="geometry" />
        </mxCell>
        <mxCell id="vOTe-QLmusaoE5qEw0vW-82" value="yrs_in_practice" style="ellipse;whiteSpace=wrap;html=1;align=center;strokeColor=default;verticalAlign=middle;fontFamily=Verdana;fontSize=7;fontColor=default;labelBackgroundColor=default;fillColor=default;" parent="1" vertex="1">
          <mxGeometry x="920" y="370" width="65" height="20" as="geometry" />
        </mxCell>
        <mxCell id="vOTe-QLmusaoE5qEw0vW-83" style="edgeStyle=orthogonalEdgeStyle;shape=connector;rounded=0;orthogonalLoop=1;jettySize=auto;html=1;entryX=0.653;entryY=1.006;entryDx=0;entryDy=0;entryPerimeter=0;strokeColor=default;align=center;verticalAlign=top;fontFamily=Verdana;fontSize=7;fontColor=default;labelBackgroundColor=default;startFill=0;endArrow=none;" parent="1" source="vOTe-QLmusaoE5qEw0vW-82" target="vOTe-QLmusaoE5qEw0vW-40" edge="1">
          <mxGeometry relative="1" as="geometry" />
        </mxCell>
        <mxCell id="vOTe-QLmusaoE5qEw0vW-84" value="yrs_in_practice" style="ellipse;whiteSpace=wrap;html=1;align=center;strokeColor=default;verticalAlign=middle;fontFamily=Verdana;fontSize=7;fontColor=default;labelBackgroundColor=default;fillColor=default;" parent="1" vertex="1">
          <mxGeometry x="290.71" y="640" width="65" height="20" as="geometry" />
        </mxCell>
        <mxCell id="vOTe-QLmusaoE5qEw0vW-86" value="salary" style="ellipse;whiteSpace=wrap;html=1;align=center;strokeColor=default;verticalAlign=middle;fontFamily=Verdana;fontSize=7;fontColor=default;labelBackgroundColor=default;fillColor=default;" parent="1" vertex="1">
          <mxGeometry x="887.14" y="475" width="50" height="20" as="geometry" />
        </mxCell>
        <mxCell id="vOTe-QLmusaoE5qEw0vW-88" value="salary" style="ellipse;whiteSpace=wrap;html=1;align=center;strokeColor=default;verticalAlign=middle;fontFamily=Verdana;fontSize=7;fontColor=default;labelBackgroundColor=default;fillColor=default;" parent="1" vertex="1">
          <mxGeometry x="365.71" y="630" width="50" height="20" as="geometry" />
        </mxCell>
        <mxCell id="vOTe-QLmusaoE5qEw0vW-90" value="Hospital" style="whiteSpace=wrap;html=1;align=center;strokeColor=default;verticalAlign=middle;fontFamily=Verdana;fontSize=7;fontColor=default;labelBackgroundColor=default;fillColor=default;" parent="1" vertex="1">
          <mxGeometry x="350" y="759.89" width="100" height="40" as="geometry" />
        </mxCell>
        <mxCell id="9Wn79j_09oTSSWoXO-Nu-5" style="edgeStyle=orthogonalEdgeStyle;shape=connector;rounded=0;orthogonalLoop=1;jettySize=auto;html=1;entryX=0;entryY=0.5;entryDx=0;entryDy=0;strokeColor=default;align=center;verticalAlign=top;fontFamily=Verdana;fontSize=7;fontColor=default;labelBackgroundColor=default;startFill=0;endArrow=none;" edge="1" parent="1" source="9Wn79j_09oTSSWoXO-Nu-2" target="vOTe-QLmusaoE5qEw0vW-90">
          <mxGeometry relative="1" as="geometry" />
        </mxCell>
        <mxCell id="9Wn79j_09oTSSWoXO-Nu-2" value="name" style="ellipse;whiteSpace=wrap;html=1;align=center;fontStyle=4;strokeColor=default;verticalAlign=middle;fontFamily=Verdana;fontSize=7;fontColor=default;labelBackgroundColor=default;fillColor=default;" vertex="1" parent="1">
          <mxGeometry x="260" y="769.89" width="50" height="20" as="geometry" />
        </mxCell>
        <mxCell id="9Wn79j_09oTSSWoXO-Nu-6" value="address" style="ellipse;whiteSpace=wrap;html=1;align=center;strokeColor=default;verticalAlign=middle;fontFamily=Verdana;fontSize=7;fontColor=default;labelBackgroundColor=default;fillColor=default;" vertex="1" parent="1">
          <mxGeometry x="320" y="707.39" width="50" height="20" as="geometry" />
        </mxCell>
        <mxCell id="9Wn79j_09oTSSWoXO-Nu-10" style="edgeStyle=orthogonalEdgeStyle;shape=connector;rounded=0;orthogonalLoop=1;jettySize=auto;html=1;entryX=0.5;entryY=0;entryDx=0;entryDy=0;strokeColor=default;align=center;verticalAlign=top;fontFamily=Verdana;fontSize=7;fontColor=default;labelBackgroundColor=default;startFill=0;endArrow=none;" edge="1" parent="1" source="9Wn79j_09oTSSWoXO-Nu-7" target="vOTe-QLmusaoE5qEw0vW-90">
          <mxGeometry relative="1" as="geometry" />
        </mxCell>
        <mxCell id="9Wn79j_09oTSSWoXO-Nu-7" value="city" style="ellipse;whiteSpace=wrap;html=1;align=center;strokeColor=default;verticalAlign=middle;fontFamily=Verdana;fontSize=7;fontColor=default;labelBackgroundColor=default;fillColor=default;" vertex="1" parent="1">
          <mxGeometry x="390" y="707.39" width="50" height="20" as="geometry" />
        </mxCell>
        <mxCell id="9Wn79j_09oTSSWoXO-Nu-8" value="budget" style="ellipse;whiteSpace=wrap;html=1;align=center;strokeColor=default;verticalAlign=middle;fontFamily=Verdana;fontSize=7;fontColor=default;labelBackgroundColor=default;fillColor=default;" vertex="1" parent="1">
          <mxGeometry x="450" y="707.39" width="50" height="20" as="geometry" />
        </mxCell>
        <mxCell id="9Wn79j_09oTSSWoXO-Nu-9" style="edgeStyle=orthogonalEdgeStyle;shape=connector;rounded=0;orthogonalLoop=1;jettySize=auto;html=1;strokeColor=default;align=center;verticalAlign=top;fontFamily=Verdana;fontSize=7;fontColor=default;labelBackgroundColor=default;startFill=0;endArrow=none;entryX=0.116;entryY=0.002;entryDx=0;entryDy=0;entryPerimeter=0;" edge="1" parent="1" source="9Wn79j_09oTSSWoXO-Nu-6" target="vOTe-QLmusaoE5qEw0vW-90">
          <mxGeometry relative="1" as="geometry">
            <mxPoint x="370" y="757.39" as="targetPoint" />
          </mxGeometry>
        </mxCell>
        <mxCell id="9Wn79j_09oTSSWoXO-Nu-11" style="edgeStyle=orthogonalEdgeStyle;shape=connector;rounded=0;orthogonalLoop=1;jettySize=auto;html=1;entryX=0.828;entryY=0.01;entryDx=0;entryDy=0;entryPerimeter=0;strokeColor=default;align=center;verticalAlign=top;fontFamily=Verdana;fontSize=7;fontColor=default;labelBackgroundColor=default;startFill=0;endArrow=none;" edge="1" parent="1" source="9Wn79j_09oTSSWoXO-Nu-8" target="vOTe-QLmusaoE5qEw0vW-90">
          <mxGeometry relative="1" as="geometry" />
        </mxCell>
        <mxCell id="9Wn79j_09oTSSWoXO-Nu-16" style="edgeStyle=orthogonalEdgeStyle;shape=connector;rounded=0;orthogonalLoop=1;jettySize=auto;html=1;entryX=0;entryY=0.5;entryDx=0;entryDy=0;strokeColor=default;align=center;verticalAlign=top;fontFamily=Verdana;fontSize=7;fontColor=default;labelBackgroundColor=default;startFill=0;endArrow=none;" edge="1" parent="1" source="9Wn79j_09oTSSWoXO-Nu-14" target="9Wn79j_09oTSSWoXO-Nu-75">
          <mxGeometry relative="1" as="geometry" />
        </mxCell>
        <mxCell id="9Wn79j_09oTSSWoXO-Nu-17" value="M" style="edgeLabel;html=1;align=center;verticalAlign=middle;resizable=0;points=[];fontFamily=Verdana;fontSize=7;fontColor=default;labelBackgroundColor=default;" vertex="1" connectable="0" parent="9Wn79j_09oTSSWoXO-Nu-16">
          <mxGeometry x="0.7102" relative="1" as="geometry">
            <mxPoint as="offset" />
          </mxGeometry>
        </mxCell>
        <mxCell id="9Wn79j_09oTSSWoXO-Nu-14" value="has" style="shape=rhombus;perimeter=rhombusPerimeter;whiteSpace=wrap;html=1;align=center;fontFamily=Verdana;fontSize=7;fontColor=default;labelBackgroundColor=default;" vertex="1" parent="1">
          <mxGeometry x="470" y="759.89" width="80" height="40" as="geometry" />
        </mxCell>
        <mxCell id="9Wn79j_09oTSSWoXO-Nu-15" style="edgeStyle=orthogonalEdgeStyle;shape=connector;rounded=0;orthogonalLoop=1;jettySize=auto;html=1;entryX=0.026;entryY=0.529;entryDx=0;entryDy=0;entryPerimeter=0;strokeColor=default;align=center;verticalAlign=top;fontFamily=Verdana;fontSize=7;fontColor=default;labelBackgroundColor=default;startFill=0;endArrow=none;" edge="1" parent="1" source="vOTe-QLmusaoE5qEw0vW-90" target="9Wn79j_09oTSSWoXO-Nu-14">
          <mxGeometry relative="1" as="geometry" />
        </mxCell>
        <mxCell id="9Wn79j_09oTSSWoXO-Nu-18" value="1" style="edgeLabel;html=1;align=center;verticalAlign=middle;resizable=0;points=[];fontFamily=Verdana;fontSize=7;fontColor=default;labelBackgroundColor=default;" vertex="1" connectable="0" parent="9Wn79j_09oTSSWoXO-Nu-15">
          <mxGeometry x="-0.3789" y="1" relative="1" as="geometry">
            <mxPoint as="offset" />
          </mxGeometry>
        </mxCell>
        <mxCell id="9Wn79j_09oTSSWoXO-Nu-23" style="edgeStyle=orthogonalEdgeStyle;shape=connector;rounded=0;orthogonalLoop=1;jettySize=auto;html=1;entryX=0.208;entryY=0.003;entryDx=0;entryDy=0;strokeColor=default;align=center;verticalAlign=top;fontFamily=Verdana;fontSize=7;fontColor=default;labelBackgroundColor=default;startFill=0;endArrow=none;exitX=0.5;exitY=1;exitDx=0;exitDy=0;entryPerimeter=0;" edge="1" parent="1" source="9Wn79j_09oTSSWoXO-Nu-74" target="9Wn79j_09oTSSWoXO-Nu-75">
          <mxGeometry relative="1" as="geometry">
            <mxPoint x="620" y="725.5" as="sourcePoint" />
          </mxGeometry>
        </mxCell>
        <mxCell id="9Wn79j_09oTSSWoXO-Nu-22" style="edgeStyle=orthogonalEdgeStyle;shape=connector;rounded=0;orthogonalLoop=1;jettySize=auto;html=1;entryX=0.838;entryY=0.01;entryDx=0;entryDy=0;strokeColor=default;align=center;verticalAlign=top;fontFamily=Verdana;fontSize=7;fontColor=default;labelBackgroundColor=default;startFill=0;endArrow=none;entryPerimeter=0;" edge="1" parent="1" source="9Wn79j_09oTSSWoXO-Nu-21" target="9Wn79j_09oTSSWoXO-Nu-75">
          <mxGeometry relative="1" as="geometry" />
        </mxCell>
        <mxCell id="9Wn79j_09oTSSWoXO-Nu-21" value="hospital" style="ellipse;whiteSpace=wrap;html=1;align=center;fontStyle=4;strokeColor=default;verticalAlign=middle;fontFamily=Verdana;fontSize=7;fontColor=default;labelBackgroundColor=default;fillColor=default;" vertex="1" parent="1">
          <mxGeometry x="685" y="703.75" width="50" height="20" as="geometry" />
        </mxCell>
        <mxCell id="9Wn79j_09oTSSWoXO-Nu-25" style="edgeStyle=orthogonalEdgeStyle;shape=connector;rounded=0;orthogonalLoop=1;jettySize=auto;html=1;strokeColor=default;align=center;verticalAlign=top;fontFamily=Verdana;fontSize=7;fontColor=default;labelBackgroundColor=default;startFill=0;endArrow=none;entryX=0.98;entryY=0.44;entryDx=0;entryDy=0;entryPerimeter=0;" edge="1" parent="1" source="9Wn79j_09oTSSWoXO-Nu-24" target="9Wn79j_09oTSSWoXO-Nu-75">
          <mxGeometry relative="1" as="geometry" />
        </mxCell>
        <mxCell id="9Wn79j_09oTSSWoXO-Nu-24" value="budget" style="ellipse;whiteSpace=wrap;html=1;align=center;strokeColor=default;verticalAlign=middle;fontFamily=Verdana;fontSize=7;fontColor=default;labelBackgroundColor=default;fillColor=default;" vertex="1" parent="1">
          <mxGeometry x="735" y="775.5" width="50" height="20" as="geometry" />
        </mxCell>
        <mxCell id="9Wn79j_09oTSSWoXO-Nu-28" style="edgeStyle=orthogonalEdgeStyle;shape=connector;rounded=0;orthogonalLoop=1;jettySize=auto;html=1;entryX=0.5;entryY=1;entryDx=0;entryDy=0;strokeColor=default;align=center;verticalAlign=top;fontFamily=Verdana;fontSize=7;fontColor=default;labelBackgroundColor=default;startFill=0;endArrow=none;exitX=0.5;exitY=1;exitDx=0;exitDy=0;" edge="1" parent="1" source="9Wn79j_09oTSSWoXO-Nu-26" target="9Wn79j_09oTSSWoXO-Nu-75">
          <mxGeometry relative="1" as="geometry" />
        </mxCell>
        <mxCell id="9Wn79j_09oTSSWoXO-Nu-31" value="1" style="edgeLabel;html=1;align=center;verticalAlign=middle;resizable=0;points=[];fontFamily=Verdana;fontSize=7;fontColor=default;labelBackgroundColor=default;" vertex="1" connectable="0" parent="9Wn79j_09oTSSWoXO-Nu-28">
          <mxGeometry x="0.9018" y="1" relative="1" as="geometry">
            <mxPoint as="offset" />
          </mxGeometry>
        </mxCell>
        <mxCell id="9Wn79j_09oTSSWoXO-Nu-26" value="belongs to" style="shape=rhombus;perimeter=rhombusPerimeter;whiteSpace=wrap;html=1;align=center;fontFamily=Verdana;fontSize=7;fontColor=default;labelBackgroundColor=default;" vertex="1" parent="1">
          <mxGeometry x="790" y="600" width="80" height="40" as="geometry" />
        </mxCell>
        <mxCell id="9Wn79j_09oTSSWoXO-Nu-32" style="edgeStyle=orthogonalEdgeStyle;shape=connector;rounded=0;orthogonalLoop=1;jettySize=auto;html=1;entryX=0.204;entryY=1.027;entryDx=0;entryDy=0;entryPerimeter=0;strokeColor=default;align=center;verticalAlign=top;fontFamily=Verdana;fontSize=7;fontColor=default;labelBackgroundColor=default;startFill=0;endArrow=none;" edge="1" parent="1" source="vOTe-QLmusaoE5qEw0vW-84" target="vOTe-QLmusaoE5qEw0vW-39">
          <mxGeometry relative="1" as="geometry" />
        </mxCell>
        <mxCell id="9Wn79j_09oTSSWoXO-Nu-36" style="edgeStyle=orthogonalEdgeStyle;shape=connector;rounded=0;orthogonalLoop=1;jettySize=auto;html=1;strokeColor=default;align=center;verticalAlign=top;fontFamily=Verdana;fontSize=7;fontColor=default;labelBackgroundColor=default;startFill=0;endArrow=none;entryX=0.63;entryY=0.003;entryDx=0;entryDy=0;entryPerimeter=0;" edge="1" parent="1" source="9Wn79j_09oTSSWoXO-Nu-34" target="9Wn79j_09oTSSWoXO-Nu-75">
          <mxGeometry relative="1" as="geometry">
            <mxPoint x="1010" y="340" as="targetPoint" />
          </mxGeometry>
        </mxCell>
        <mxCell id="9Wn79j_09oTSSWoXO-Nu-38" value="M" style="edgeLabel;html=1;align=center;verticalAlign=middle;resizable=0;points=[];fontFamily=Verdana;fontSize=7;fontColor=default;labelBackgroundColor=default;" vertex="1" connectable="0" parent="9Wn79j_09oTSSWoXO-Nu-36">
          <mxGeometry x="0.8052" relative="1" as="geometry">
            <mxPoint as="offset" />
          </mxGeometry>
        </mxCell>
        <mxCell id="9Wn79j_09oTSSWoXO-Nu-34" value="belongs to" style="shape=rhombus;perimeter=rhombusPerimeter;whiteSpace=wrap;html=1;align=center;fontFamily=Verdana;fontSize=7;fontColor=default;labelBackgroundColor=default;" vertex="1" parent="1">
          <mxGeometry x="572.14" y="570" width="80" height="40" as="geometry" />
        </mxCell>
        <mxCell id="9Wn79j_09oTSSWoXO-Nu-40" style="edgeStyle=orthogonalEdgeStyle;shape=connector;rounded=0;orthogonalLoop=1;jettySize=auto;html=1;entryX=0.677;entryY=1.014;entryDx=0;entryDy=0;entryPerimeter=0;strokeColor=default;align=center;verticalAlign=top;fontFamily=Verdana;fontSize=7;fontColor=default;labelBackgroundColor=default;startFill=0;endArrow=none;" edge="1" parent="1" source="vOTe-QLmusaoE5qEw0vW-88" target="vOTe-QLmusaoE5qEw0vW-39">
          <mxGeometry relative="1" as="geometry" />
        </mxCell>
        <mxCell id="9Wn79j_09oTSSWoXO-Nu-45" style="edgeStyle=orthogonalEdgeStyle;shape=connector;rounded=0;orthogonalLoop=1;jettySize=auto;html=1;exitX=1;exitY=0.5;exitDx=0;exitDy=0;entryX=0.5;entryY=1;entryDx=0;entryDy=0;strokeColor=default;align=center;verticalAlign=top;fontFamily=Verdana;fontSize=7;fontColor=default;labelBackgroundColor=default;startFill=0;endArrow=none;dashed=1;" edge="1" parent="1" source="9Wn79j_09oTSSWoXO-Nu-43" target="vOTe-QLmusaoE5qEw0vW-90">
          <mxGeometry relative="1" as="geometry" />
        </mxCell>
        <mxCell id="9Wn79j_09oTSSWoXO-Nu-52" value="M" style="edgeLabel;html=1;align=center;verticalAlign=middle;resizable=0;points=[];fontFamily=Verdana;fontSize=7;fontColor=default;labelBackgroundColor=default;" vertex="1" connectable="0" parent="9Wn79j_09oTSSWoXO-Nu-45">
          <mxGeometry x="0.9314" relative="1" as="geometry">
            <mxPoint as="offset" />
          </mxGeometry>
        </mxCell>
        <mxCell id="9Wn79j_09oTSSWoXO-Nu-43" value="goes to" style="shape=rhombus;perimeter=rhombusPerimeter;whiteSpace=wrap;html=1;align=center;fontFamily=Verdana;fontSize=7;fontColor=default;labelBackgroundColor=default;" vertex="1" parent="1">
          <mxGeometry x="130" y="808" width="80" height="40" as="geometry" />
        </mxCell>
        <mxCell id="9Wn79j_09oTSSWoXO-Nu-47" style="edgeStyle=orthogonalEdgeStyle;shape=connector;rounded=0;orthogonalLoop=1;jettySize=auto;html=1;entryX=0;entryY=0.5;entryDx=0;entryDy=0;strokeColor=default;align=center;verticalAlign=top;fontFamily=Verdana;fontSize=7;fontColor=default;labelBackgroundColor=default;startFill=0;endArrow=none;" edge="1" parent="1" source="9Wn79j_09oTSSWoXO-Nu-46" target="9Wn79j_09oTSSWoXO-Nu-43">
          <mxGeometry relative="1" as="geometry" />
        </mxCell>
        <mxCell id="9Wn79j_09oTSSWoXO-Nu-46" value="admit_date" style="ellipse;whiteSpace=wrap;html=1;align=center;strokeColor=default;verticalAlign=middle;fontFamily=Verdana;fontSize=7;fontColor=default;labelBackgroundColor=default;fillColor=default;" vertex="1" parent="1">
          <mxGeometry x="60" y="818" width="50" height="20" as="geometry" />
        </mxCell>
        <mxCell id="9Wn79j_09oTSSWoXO-Nu-49" style="edgeStyle=orthogonalEdgeStyle;shape=connector;rounded=0;orthogonalLoop=1;jettySize=auto;html=1;entryX=0;entryY=1;entryDx=0;entryDy=0;strokeColor=default;align=center;verticalAlign=top;fontFamily=Verdana;fontSize=7;fontColor=default;labelBackgroundColor=default;startFill=0;endArrow=none;" edge="1" parent="1" source="9Wn79j_09oTSSWoXO-Nu-48" target="9Wn79j_09oTSSWoXO-Nu-43">
          <mxGeometry relative="1" as="geometry" />
        </mxCell>
        <mxCell id="9Wn79j_09oTSSWoXO-Nu-48" value="priority" style="ellipse;whiteSpace=wrap;html=1;align=center;strokeColor=default;verticalAlign=middle;fontFamily=Verdana;fontSize=7;fontColor=default;labelBackgroundColor=default;fillColor=default;" vertex="1" parent="1">
          <mxGeometry x="80" y="860" width="50" height="20" as="geometry" />
        </mxCell>
        <mxCell id="9Wn79j_09oTSSWoXO-Nu-55" style="edgeStyle=orthogonalEdgeStyle;shape=connector;rounded=0;orthogonalLoop=1;jettySize=auto;html=1;entryX=0;entryY=0.5;entryDx=0;entryDy=0;strokeColor=default;align=center;verticalAlign=top;fontFamily=Verdana;fontSize=7;fontColor=default;labelBackgroundColor=default;startFill=0;endArrow=none;" edge="1" parent="1" source="9Wn79j_09oTSSWoXO-Nu-53" target="vOTe-QLmusaoE5qEw0vW-40">
          <mxGeometry relative="1" as="geometry" />
        </mxCell>
        <mxCell id="9Wn79j_09oTSSWoXO-Nu-56" value="1" style="edgeLabel;html=1;align=center;verticalAlign=middle;resizable=0;points=[];fontFamily=Verdana;fontSize=7;fontColor=default;labelBackgroundColor=default;" vertex="1" connectable="0" parent="9Wn79j_09oTSSWoXO-Nu-55">
          <mxGeometry x="0.883" y="-1" relative="1" as="geometry">
            <mxPoint as="offset" />
          </mxGeometry>
        </mxCell>
        <mxCell id="9Wn79j_09oTSSWoXO-Nu-62" style="edgeStyle=orthogonalEdgeStyle;shape=connector;rounded=0;orthogonalLoop=1;jettySize=auto;html=1;strokeColor=default;align=center;verticalAlign=top;fontFamily=Verdana;fontSize=7;fontColor=default;labelBackgroundColor=default;startFill=0;endArrow=none;" edge="1" parent="1" source="9Wn79j_09oTSSWoXO-Nu-53" target="9Wn79j_09oTSSWoXO-Nu-60">
          <mxGeometry relative="1" as="geometry" />
        </mxCell>
        <mxCell id="9Wn79j_09oTSSWoXO-Nu-63" style="edgeStyle=orthogonalEdgeStyle;shape=connector;rounded=0;orthogonalLoop=1;jettySize=auto;html=1;exitX=1;exitY=1;exitDx=0;exitDy=0;strokeColor=default;align=center;verticalAlign=top;fontFamily=Verdana;fontSize=7;fontColor=default;labelBackgroundColor=default;startFill=0;endArrow=none;" edge="1" parent="1" source="9Wn79j_09oTSSWoXO-Nu-53" target="9Wn79j_09oTSSWoXO-Nu-61">
          <mxGeometry relative="1" as="geometry" />
        </mxCell>
        <mxCell id="9Wn79j_09oTSSWoXO-Nu-53" value="diagnosis" style="shape=rhombus;perimeter=rhombusPerimeter;whiteSpace=wrap;html=1;align=center;fontFamily=Verdana;fontSize=7;fontColor=default;labelBackgroundColor=default;" vertex="1" parent="1">
          <mxGeometry x="500" y="410" width="80" height="40" as="geometry" />
        </mxCell>
        <mxCell id="9Wn79j_09oTSSWoXO-Nu-58" value="disease" style="ellipse;whiteSpace=wrap;html=1;align=center;strokeColor=default;verticalAlign=middle;fontFamily=Verdana;fontSize=7;fontColor=default;labelBackgroundColor=default;fillColor=default;" vertex="1" parent="1">
          <mxGeometry x="465" y="485" width="50" height="20" as="geometry" />
        </mxCell>
        <mxCell id="9Wn79j_09oTSSWoXO-Nu-59" style="edgeStyle=orthogonalEdgeStyle;shape=connector;rounded=0;orthogonalLoop=1;jettySize=auto;html=1;entryX=0.192;entryY=0.669;entryDx=0;entryDy=0;entryPerimeter=0;strokeColor=default;align=center;verticalAlign=top;fontFamily=Verdana;fontSize=7;fontColor=default;labelBackgroundColor=default;startFill=0;endArrow=none;" edge="1" parent="1" source="9Wn79j_09oTSSWoXO-Nu-58" target="9Wn79j_09oTSSWoXO-Nu-53">
          <mxGeometry relative="1" as="geometry" />
        </mxCell>
        <mxCell id="9Wn79j_09oTSSWoXO-Nu-60" value="date" style="ellipse;whiteSpace=wrap;html=1;align=center;strokeColor=default;verticalAlign=middle;fontFamily=Verdana;fontSize=7;fontColor=default;labelBackgroundColor=default;fillColor=default;" vertex="1" parent="1">
          <mxGeometry x="522.14" y="485" width="50" height="20" as="geometry" />
        </mxCell>
        <mxCell id="9Wn79j_09oTSSWoXO-Nu-61" value="prognosis" style="ellipse;whiteSpace=wrap;html=1;align=center;strokeColor=default;verticalAlign=middle;fontFamily=Verdana;fontSize=7;fontColor=default;labelBackgroundColor=default;fillColor=default;" vertex="1" parent="1">
          <mxGeometry x="580" y="495" width="50" height="20" as="geometry" />
        </mxCell>
        <mxCell id="9Wn79j_09oTSSWoXO-Nu-65" style="edgeStyle=orthogonalEdgeStyle;shape=connector;rounded=0;orthogonalLoop=1;jettySize=auto;html=1;exitX=0.5;exitY=1;exitDx=0;exitDy=0;entryX=0.5;entryY=0;entryDx=0;entryDy=0;strokeColor=default;align=center;verticalAlign=top;fontFamily=Verdana;fontSize=7;fontColor=default;labelBackgroundColor=default;startFill=0;endArrow=none;dashed=1;" edge="1" parent="1" source="9Wn79j_09oTSSWoXO-Nu-64" target="9Wn79j_09oTSSWoXO-Nu-53">
          <mxGeometry relative="1" as="geometry" />
        </mxCell>
        <mxCell id="9Wn79j_09oTSSWoXO-Nu-66" value="M" style="edgeLabel;html=1;align=center;verticalAlign=middle;resizable=0;points=[];fontFamily=Verdana;fontSize=7;fontColor=default;labelBackgroundColor=default;" vertex="1" connectable="0" parent="9Wn79j_09oTSSWoXO-Nu-65">
          <mxGeometry x="-0.7938" y="-1" relative="1" as="geometry">
            <mxPoint as="offset" />
          </mxGeometry>
        </mxCell>
        <mxCell id="9Wn79j_09oTSSWoXO-Nu-64" value="Medical Test" style="whiteSpace=wrap;html=1;align=center;strokeColor=default;verticalAlign=middle;fontFamily=Verdana;fontSize=7;fontColor=default;labelBackgroundColor=default;fillColor=default;" vertex="1" parent="1">
          <mxGeometry x="475" y="280" width="100" height="40" as="geometry" />
        </mxCell>
        <mxCell id="9Wn79j_09oTSSWoXO-Nu-69" style="edgeStyle=orthogonalEdgeStyle;shape=connector;rounded=0;orthogonalLoop=1;jettySize=auto;html=1;entryX=0;entryY=0.5;entryDx=0;entryDy=0;strokeColor=default;align=center;verticalAlign=top;fontFamily=Verdana;fontSize=7;fontColor=default;labelBackgroundColor=default;startFill=0;endArrow=none;" edge="1" parent="1" source="9Wn79j_09oTSSWoXO-Nu-68" target="9Wn79j_09oTSSWoXO-Nu-64">
          <mxGeometry relative="1" as="geometry" />
        </mxCell>
        <mxCell id="9Wn79j_09oTSSWoXO-Nu-68" value="test_id" style="ellipse;whiteSpace=wrap;html=1;align=center;fontStyle=4;strokeColor=default;verticalAlign=middle;fontFamily=Verdana;fontSize=7;fontColor=default;labelBackgroundColor=default;fillColor=default;" vertex="1" parent="1">
          <mxGeometry x="385" y="280" width="50" height="20" as="geometry" />
        </mxCell>
        <mxCell id="9Wn79j_09oTSSWoXO-Nu-79" value="" style="edgeStyle=orthogonalEdgeStyle;shape=connector;rounded=0;orthogonalLoop=1;jettySize=auto;html=1;strokeColor=default;align=center;verticalAlign=top;fontFamily=Verdana;fontSize=7;fontColor=default;labelBackgroundColor=default;startFill=0;endArrow=none;" edge="1" parent="1" source="9Wn79j_09oTSSWoXO-Nu-70" target="9Wn79j_09oTSSWoXO-Nu-64">
          <mxGeometry relative="1" as="geometry" />
        </mxCell>
        <mxCell id="9Wn79j_09oTSSWoXO-Nu-70" value="test_name" style="ellipse;whiteSpace=wrap;html=1;align=center;strokeColor=default;verticalAlign=middle;fontFamily=Verdana;fontSize=7;fontColor=default;labelBackgroundColor=default;fillColor=default;" vertex="1" parent="1">
          <mxGeometry x="375" y="300" width="50" height="20" as="geometry" />
        </mxCell>
        <mxCell id="9Wn79j_09oTSSWoXO-Nu-73" style="edgeStyle=orthogonalEdgeStyle;shape=connector;rounded=0;orthogonalLoop=1;jettySize=auto;html=1;entryX=1;entryY=0.25;entryDx=0;entryDy=0;strokeColor=default;align=center;verticalAlign=top;fontFamily=Verdana;fontSize=7;fontColor=default;labelBackgroundColor=default;startFill=0;endArrow=none;" edge="1" parent="1" source="9Wn79j_09oTSSWoXO-Nu-72" target="9Wn79j_09oTSSWoXO-Nu-64">
          <mxGeometry relative="1" as="geometry" />
        </mxCell>
        <mxCell id="9Wn79j_09oTSSWoXO-Nu-72" value="fee" style="ellipse;whiteSpace=wrap;html=1;align=center;strokeColor=default;verticalAlign=middle;fontFamily=Verdana;fontSize=7;fontColor=default;labelBackgroundColor=default;fillColor=default;" vertex="1" parent="1">
          <mxGeometry x="610" y="280" width="50" height="20" as="geometry" />
        </mxCell>
        <mxCell id="9Wn79j_09oTSSWoXO-Nu-74" value="&lt;span style=&quot;border-bottom: 1px dotted&quot;&gt;name&lt;/span&gt;" style="ellipse;whiteSpace=wrap;html=1;align=center;fontFamily=Verdana;fontSize=7;fontColor=default;labelBackgroundColor=default;" vertex="1" parent="1">
          <mxGeometry x="590" y="705.5" width="50" height="16.5" as="geometry" />
        </mxCell>
        <mxCell id="9Wn79j_09oTSSWoXO-Nu-75" value="Department" style="shape=ext;margin=3;double=1;whiteSpace=wrap;html=1;align=center;fontFamily=Verdana;fontSize=7;fontColor=default;labelBackgroundColor=default;" vertex="1" parent="1">
          <mxGeometry x="620" y="768" width="100" height="40" as="geometry" />
        </mxCell>
        <mxCell id="9Wn79j_09oTSSWoXO-Nu-76" value="diagnosis" style="shape=rhombus;perimeter=rhombusPerimeter;whiteSpace=wrap;html=1;align=center;fontFamily=Verdana;fontSize=7;fontColor=default;labelBackgroundColor=default;" vertex="1" parent="1">
          <mxGeometry x="450" y="160" width="80" height="40" as="geometry" />
        </mxCell>
        <mxCell id="9Wn79j_09oTSSWoXO-Nu-77" value="Medical Test" style="whiteSpace=wrap;html=1;align=center;strokeColor=default;verticalAlign=middle;fontFamily=Verdana;fontSize=7;fontColor=default;labelBackgroundColor=default;fillColor=default;" vertex="1" parent="1">
          <mxGeometry x="600" y="160" width="100" height="40" as="geometry" />
        </mxCell>
      </root>
    </mxGraphModel>
  </diagram>
</mxfile>
